<mxfile host="app.diagrams.net" modified="2023-09-15T10:11:43.364Z" agent="Mozilla/5.0 (Windows NT 10.0; Win64; x64) AppleWebKit/537.36 (KHTML, like Gecko) Chrome/116.0.0.0 Safari/537.36" version="21.7.5" etag="RjK5qV9ndHDakpEvMC0M" type="github">
  <diagram name="第 1 页" id="yzmq5Rpmwwqhz1XcbJds">
    <mxGraphModel>
      <root>
        <mxCell id="0" />
        <mxCell id="1" parent="0" />
      </root>
    </mxGraphModel>
  </diagram>
</mxfile>
